<?xml version="1.0" standalone="no"?><!DOCTYPE svg PUBLIC "-//W3C//DTD SVG 1.1//EN" "http://www.w3.org/Graphics/SVG/1.1/DTD/svg11.dtd"><svg t="1515132306792" class="icon" style="" viewBox="0 0 1024 1024" version="1.1" xmlns="http://www.w3.org/2000/svg" p-id="10687" xmlns:xlink="http://www.w3.org/1999/xlink" width="20" height="20"><defs><style type="text/css"></style></defs><path d="M781.14 512c-39.213 0-73.545-34.401-73.545-73.542 0-39.213 34.333-73.539 73.545-73.539 39.223 0 73.542 34.327 73.542 73.539 0.003 39.141-34.322 73.542-73.542 73.542zM634.058 315.859c-39.223 0-73.545-34.333-73.545-73.545s34.322-73.542 73.545-73.542c39.213 0 73.537 34.333 73.537 73.542 0 39.213-34.324 73.545-73.537 73.545zM388.929 315.859c-39.286 0-73.542-34.333-73.542-73.545s34.256-73.542 73.542-73.542c39.213 0 73.545 34.333 73.545 73.542 0 39.213-34.333 73.545-73.545 73.545zM241.839 512c-39.278 0-73.537-34.401-73.537-73.542 0-39.213 34.256-73.539 73.537-73.539 39.223 0 73.542 34.327 73.542 73.539 0.003 39.141-34.317 73.542-73.542 73.542zM511.457 70.738c-245.124 0-441.27 196.135-441.27 441.265s196.146 441.262 441.27 441.262c39.286 0 73.542-34.401 73.542-73.545 0-19.68-4.88-34.401-19.533-49.045-9.92-14.726-19.68-29.453-19.68-48.986 0-39.286 34.333-73.542 73.545-73.542h88.26c137.328 0 245.132-107.877 245.132-245.195 0-215.753-196.073-392.213-441.267-392.213z" fill="#00aeff" p-id="10688"></path></svg>