<?xml version="1.0" standalone="no"?><!DOCTYPE svg PUBLIC "-//W3C//DTD SVG 1.1//EN" "http://www.w3.org/Graphics/SVG/1.1/DTD/svg11.dtd"><svg t="1515132242896" class="icon" style="" viewBox="0 0 1024 1024" version="1.1" xmlns="http://www.w3.org/2000/svg" p-id="7618" xmlns:xlink="http://www.w3.org/1999/xlink" width="20" height="20"><defs><style type="text/css"></style></defs><path d="M878.368323 512.508121c0 202.409374-164.084364 366.493737-366.492444 366.493738S145.384727 714.917495 145.384727 512.508121c0-202.406788 164.084364-366.491152 366.492445-366.491151 48.735677 0 95.251394 9.512081 137.788767 26.78303 134.12202 54.456889 228.702384 186.039596 228.702384 339.708121z" fill="#FBDF6C" p-id="7619"></path><path d="M581.68501 824.897939c-202.408081 0-366.492444-164.084364-366.492444-366.492444 0-108.13802 46.846707-205.324929 121.340121-272.40598C217.880566 246.665051 136.654869 370.10101 136.654869 512.508121c0 202.409374 164.084364 366.493737 366.492444 366.493738 94.267475 0 180.213657-35.604687 245.152323-94.082586-49.988525 25.557333-106.616242 39.978667-166.614626 39.978666z" fill="#FAC56B" p-id="7620"></path><path d="M299.589818 486.946909c-27.216162 0-49.281293 22.062545-49.281293 49.28h98.563879c-0.002586-27.216162-22.065131-49.28-49.282586-49.28z m429.858909 0c-27.214869 0-49.281293 22.062545-49.281293 49.28H778.731313c0.001293-27.216162-22.062545-49.28-49.282586-49.28z" fill="#F8A880" p-id="7621"></path><path d="M356.167111 399.065212c0-19.229737 15.64703-34.874182 34.875475-34.874182s34.876768 15.644444 34.876768 34.874182c0 8.234667 6.674101 14.908768 14.907474 14.908768 8.234667 0 14.908768-6.675394 14.908768-14.908768 0-35.671919-29.022384-64.694303-64.695596-64.694303-35.673212 0-64.694303 29.022384-64.694303 64.694303 0 8.234667 6.675394 14.908768 14.907475 14.908768 8.239838 0 14.913939-6.672808 14.913939-14.908768M638.002424 334.372202c-35.671919 0-64.694303 29.021091-64.694303 64.694303 0 8.234667 6.675394 14.910061 14.908768 14.910061 8.232081 0 14.908768-6.675394 14.908768-14.910061 0-19.229737 15.645737-34.874182 34.874181-34.874182 19.229737 0 34.876768 15.644444 34.876768 34.874182 0 8.234667 6.675394 14.910061 14.908768 14.910061s14.907475-6.675394 14.907474-14.910061c0.003879-35.673212-29.015919-64.694303-64.690424-64.694303" fill="#7D164A" p-id="7622"></path><path d="M514.521212 780.334545c-105.943919 0-191.829333-85.884121-191.829333-191.829333h383.656081c0.001293 105.945212-85.885414 191.829333-191.826748 191.829333z" fill="#FFFFFF" p-id="7623"></path><path d="M341.551838 671.548768a191.77503 191.77503 0 0 0 17.855354 29.817535h310.22804a191.741414 191.741414 0 0 0 17.856647-29.817535H341.551838z" fill="#E6E6E6" p-id="7624"></path><path d="M514.521212 799.261737c-111.345778 0-201.932283-90.586505-201.932283-201.93099 0-13.054707 10.620121-23.674828 23.674829-23.674828h356.512323c13.053414 0 23.674828 10.620121 23.674828 23.674828 0 111.344485-90.585212 201.93099-201.929697 201.93099zM336.263758 593.296808a4.037818 4.037818 0 0 0-4.03394 4.033939c0 100.514909 81.775192 182.288808 182.291394 182.288809 100.513616 0 182.288808-81.775192 182.288808-182.288809 0-2.223838-1.808808-4.033939-4.033939-4.033939h-356.512323z" fill="#7D164A" p-id="7625"></path><path d="M514.519919 894.108444c-51.634424 0-101.730263-10.115879-148.897616-30.065777-45.552485-19.267232-86.459475-46.846707-121.584485-81.971718-35.12501-35.126303-62.704485-76.033293-81.971717-121.584484-19.951192-47.168646-30.065778-97.264485-30.065778-148.898909s10.115879-101.730263 30.065778-148.897617c19.267232-45.552485 46.845414-86.459475 81.971717-121.584484s76.032-62.704485 121.584485-81.971718c47.167354-19.951192 97.264485-30.065778 148.897616-30.065777s101.730263 10.115879 148.897616 30.065777c45.552485 19.267232 86.458182 46.845414 121.584485 81.971718 35.12501 35.12501 62.704485 76.032 81.971717 121.584484 19.949899 47.167354 30.065778 97.264485 30.065778 148.897617 0 51.634424-10.115879 101.730263-30.065778 148.898909-19.267232 45.551192-46.846707 86.458182-81.971717 121.584484-35.126303 35.12501-76.032 62.704485-121.584485 81.971718-47.167354 19.948606-97.263192 30.065778-148.897616 30.065777z m0-737.760969c-195.880081 0-355.240081 159.36-355.240081 355.240081 0 195.880081 159.36 355.240081 355.240081 355.24008s355.240081-159.36 355.240081-355.24008c0-195.880081-159.36-355.240081-355.240081-355.240081z" fill="#7D164A" p-id="7626"></path></svg>