<?xml version="1.0" standalone="no"?><!DOCTYPE svg PUBLIC "-//W3C//DTD SVG 1.1//EN" "http://www.w3.org/Graphics/SVG/1.1/DTD/svg11.dtd"><svg t="1515132260897" class="icon" style="" viewBox="0 0 1024 1024" version="1.1" xmlns="http://www.w3.org/2000/svg" p-id="8295" xmlns:xlink="http://www.w3.org/1999/xlink" width="20" height="20"><defs><style type="text/css"></style></defs><path d="M562.654168 524.546757c-59.653635 73.275887-60.188824 73.328076-73.828472 74.699306l-2.01489 0.11768h-0.020466c-15.633049 0-23.580045-8.448416-61.726853-48.940642-9.861602-10.470469-24.292266-25.792433-34.885532-36.174897-35.07996 37.751812-113.553219 138.257877-118.402667 153.903205-2.074242 15.337313 2.012843 22.604834 17.593704 29.939893h429.172573c16.09149-11.002588 33.159214-28.258601 34.035164-44.557822 0.915859-16.96437-87.75874-142.850475-134.630257-195.529255-15.421224 17.574261-39.193651 46.766117-55.292304 66.542532z" fill="#EB8543" p-id="8296"></path><path d="M778.417257 74.959226H245.590929c-99.188047 0-179.602517 80.414471-179.602517 179.602517v514.869351c0 99.18907 80.414471 179.610704 179.602517 179.610704h532.827351c99.187023 0 179.592284-80.421634 179.592285-179.610704V254.561743c-0.001023-99.188047-80.406285-179.602517-179.593308-179.602517zM360.637152 238.169401c33.866319 0 61.418838 27.556613 61.418838 61.427025 0 33.866319-27.552519 61.414745-61.418838 61.414744s-61.417815-27.547403-61.417815-61.414744c0-33.870412 27.551496-61.427024 61.417815-61.427025z m444.51398 418.176125c-2.948145 54.92289-63.423495 89.537246-65.995064 90.978061l-5.995551 3.409656-455.324186-0.341784-4.013407-1.662873c-41.925878-17.186428-60.042491-47.382147-53.839209-89.727581 0.926092-6.341429 3.390213-23.186072 74.103742-112.297622 73.680093-92.846618 83.118046-92.846618 95.067192-92.846618 15.893992 0 26.613124 9.91379 74.235748 60.47535l0.771573 0.823761c5.932106 6.306636 13.609972 14.46341 20.409842 21.454638 10.906397-12.920264 25.802666-31.222095 36.951587-44.933375 75.873038-93.188402 80.195483-96.30744 96.414887-96.30744l1.587148 0.051166c8.048303 0.60989 22.710234 1.713015 104.459096 112.143103 56.703443 76.636425 82.495876 123.916241 81.166602 148.781558z" fill="#EB8543" p-id="8297"></path></svg>