<?xml version="1.0" standalone="no"?><!DOCTYPE svg PUBLIC "-//W3C//DTD SVG 1.1//EN" "http://www.w3.org/Graphics/SVG/1.1/DTD/svg11.dtd"><svg t="1515127583033" class="icon" style="" viewBox="0 0 1024 1024" version="1.1" xmlns="http://www.w3.org/2000/svg" p-id="1924" xmlns:xlink="http://www.w3.org/1999/xlink" width="20" height="20"><defs><style type="text/css"></style></defs><path d="M951.296 75.264H78.848c-25.6 0-46.592 20.992-46.592 46.592v623.104c0 25.6 20.992 46.592 46.592 46.592h295.936v77.824L312.32 932.352v15.36h267.264c-90.624-50.688-152.064-147.456-152.064-258.56 0-7.168 0.512-14.336 1.024-22.016H94.208V137.216h841.728v345.6c26.624 27.136 47.616 59.904 62.464 95.744V121.856c0-25.6-20.992-46.592-47.104-46.592z" fill="#04B543" p-id="1925"></path><path d="M729.6 691.712m-241.152 0a241.152 241.152 0 1 0 482.304 0 241.152 241.152 0 1 0-482.304 0Z" fill="#04B543" p-id="1926"></path><path d="M694.784 814.08l-5.12 4.608c-8.704 7.68-22.016 6.144-29.696-2.56L563.2 701.44c-7.68-8.704-6.144-22.016 2.56-29.696l5.12-4.608c8.704-7.68 22.016-6.144 29.696 2.56l96.768 114.688c7.68 9.216 6.656 22.528-2.56 29.696z" fill="#FFFFFF" p-id="1927"></path><path d="M662.016 818.688l-4.608-5.12c-7.68-8.704-6.144-22.016 2.56-29.696l219.648-184.832c8.704-7.68 22.016-6.144 29.696 2.56l4.608 5.12c7.68 8.704 6.144 22.016-2.56 29.696l-219.648 184.832c-8.704 7.168-22.016 6.144-29.696-2.56z" fill="#FFFFFF" p-id="1928"></path></svg>